<svg width="538" height="530" viewBox="0 0 538 530" fill="none" xmlns="http://www.w3.org/2000/svg">
<rect x="59.1141" y="14.1389" width="467.916" height="457.701" transform="rotate(5.76058 59.1141 14.1389)" stroke="#306BFF" stroke-width="4"/>
<rect x="50.2687" y="2.1907" width="19" height="19" transform="rotate(5.76058 50.2687 2.1907)" fill="white" stroke="#306BFF" stroke-width="4"/>
<rect x="283.087" y="25.6778" width="19" height="19" transform="rotate(5.76058 283.087 25.6778)" fill="white" stroke="#306BFF" stroke-width="4"/>
<rect x="236.916" y="483.355" width="19" height="19" transform="rotate(5.76058 236.916 483.355)" fill="white" stroke="#306BFF" stroke-width="4"/>
<rect x="4.09768" y="459.868" width="19" height="19" transform="rotate(5.76058 4.09768 459.868)" fill="white" stroke="#306BFF" stroke-width="4"/>
<rect x="516.9" y="49.2652" width="19" height="19" transform="rotate(5.76058 516.9 49.2652)" fill="white" stroke="#306BFF" stroke-width="4"/>
<rect x="493.714" y="279.099" width="19" height="19" transform="rotate(5.76058 493.714 279.099)" fill="white" stroke="#306BFF" stroke-width="4"/>
<rect x="27.0828" y="232.024" width="19" height="19" transform="rotate(5.76058 27.0828 232.024)" fill="white" stroke="#306BFF" stroke-width="4"/>
<rect x="470.729" y="506.942" width="19" height="19" transform="rotate(5.76058 470.729 506.942)" fill="white" stroke="#306BFF" stroke-width="4"/>
</svg>
