<svg width="1920" height="656" viewBox="0 0 1920 656" fill="none" xmlns="http://www.w3.org/2000/svg">
<rect width="1920" height="656" fill="#575757"/>
<path d="M286.57 106.031H290.32L295.359 118.359H295.57L300.609 106.031H304.359V123H301.43V111.328H301.266L296.555 122.953H294.375L289.664 111.281H289.523V123H286.57V106.031ZM316.734 110.695C316.594 109.242 315.352 108.398 313.523 108.398C311.602 108.398 310.43 109.336 310.43 110.602C310.43 112.031 311.93 112.617 313.336 112.945L314.93 113.367C317.461 113.953 319.898 115.289 319.898 118.242C319.898 121.219 317.555 123.258 313.477 123.258C309.516 123.258 307.031 121.359 306.891 118.008H309.891C310.031 119.789 311.531 120.656 313.453 120.656C315.469 120.656 316.852 119.672 316.852 118.219C316.852 116.883 315.609 116.32 313.781 115.852L311.859 115.359C309.07 114.633 307.336 113.227 307.336 110.789C307.336 107.789 310.008 105.797 313.57 105.797C317.18 105.797 319.617 107.836 319.664 110.695H316.734ZM333.797 111.445C333.258 109.641 331.852 108.539 329.789 108.539C327.047 108.539 325.078 110.672 325.078 114.492C325.078 118.359 327.023 120.492 329.859 120.492C332.414 120.492 334.055 118.945 334.102 116.531H330.164V114.117H337.055V116.156C337.055 120.516 334.055 123.234 329.859 123.234C325.172 123.234 322.008 119.906 322.008 114.516C322.008 109.078 325.312 105.797 329.766 105.797C333.516 105.797 336.398 108.117 336.914 111.445H333.797ZM364.008 120.352V122.461H344.648V120.352H352.945V115.453H355.523V120.352H364.008ZM355.594 106.734C355.594 109.945 358.805 113.109 363.258 113.812L362.133 115.969C358.547 115.289 355.617 113.238 354.211 110.461C352.805 113.227 349.898 115.312 346.336 115.969L345.211 113.812C349.641 113.109 352.805 109.922 352.828 106.734V105.188H355.594V106.734ZM383.578 103.898V125.086H381.07V114.211H378.797V124.102H376.359V104.461H378.797V112.102H381.07V103.898H383.578ZM374.555 106.57C374.555 112.289 372.75 117.211 366.727 120.656L365.227 118.852C369.738 116.238 371.648 112.887 372.023 108.656H366.211V106.57H374.555Z" fill="white"/>
<path d="M285 126.68H385.43V128.695H285V126.68Z" fill="white"/>
<path d="M305.062 169.352V171.531H285.703V169.352H305.062ZM303.375 154.867V156.953H300.281V163.703H303.305V165.766H287.367V163.703H290.344V156.953H287.297V154.867H303.375ZM292.945 163.703H297.703V156.953H292.945V163.703ZM325.805 169.469V171.625H306.445V169.469H314.789V166.023H308.742V159.086H320.93V156.461H308.695V154.352H323.508V161.148H311.344V163.891H324V166.023H317.367V169.469H325.805ZM341.133 153.344V165.672H338.648V160.328H336V158.219H338.648V153.344H341.133ZM333.727 157.445C333.727 159.719 334.992 162.016 337.688 163.094L336.375 165.086C334.5 164.359 333.234 163 332.508 161.359C331.734 163.199 330.387 164.711 328.383 165.531L327.023 163.492C329.859 162.367 331.195 159.859 331.195 157.445V156.602H327.633V154.516H337.078V156.602H333.727V157.445ZM345.305 152.898V165.812H342.82V152.898H345.305ZM345.305 166.656V174.086H342.703V168.742H330.797V166.656H345.305ZM365.156 164.008V166.07H350.297V154.562H364.969V156.672H352.945V159.227H364.477V161.266H352.945V164.008H365.156ZM367.289 169.375V171.508H347.93V169.375H367.289Z" fill="white"/>
<path d="M302.484 201.898V207.055H305.344V209.234H302.484V214.367H299.883V201.898H302.484ZM302.484 215.211V219.781H290.977V221.141H303.234V222.898H288.375V218.164H299.883V216.969H288.328V215.211H302.484ZM285.516 212.234C287.109 212.234 288.938 212.234 290.859 212.164V211.109C288.48 210.875 287.016 209.914 287.016 208.344C287.016 206.633 289.008 205.625 292.125 205.625C295.242 205.625 297.234 206.633 297.234 208.344C297.234 209.891 295.805 210.852 293.461 211.109V212.07C295.266 212 297.082 211.848 298.781 211.625L298.992 213.266C294.469 214.039 289.5 214.062 285.797 214.062L285.516 212.234ZM298.219 203.328V205.109H286.055V203.328H290.859V201.734H293.461V203.328H298.219ZM292.125 207.266C290.484 207.289 289.5 207.641 289.523 208.344C289.5 209.094 290.484 209.516 292.125 209.516C293.766 209.516 294.75 209.094 294.75 208.344C294.75 207.641 293.766 207.289 292.125 207.266ZM325.781 212.047V214.133H306.445V212.047H314.836V210.031H308.812V202.859H323.438V204.898H311.414V207.969H323.555V210.031H317.391V212.047H325.781ZM316.078 215.352C320.648 215.352 323.391 216.734 323.414 219.219C323.391 221.68 320.648 223.086 316.078 223.086C311.461 223.086 308.695 221.68 308.695 219.219C308.695 216.734 311.461 215.352 316.078 215.352ZM316.078 217.344C312.984 217.344 311.32 218 311.344 219.219C311.32 220.438 312.984 221.07 316.078 221.07C319.102 221.07 320.789 220.438 320.812 219.219C320.789 218 319.102 217.344 316.078 217.344Z" fill="white"/>
<path d="M305.039 263.227V265.289H296.602V272.086H294.023V265.289H285.68V263.227H305.039ZM290.602 251.742V254.344H300.07V251.742H302.695V261.023H288.023V251.742H290.602ZM290.602 258.914H300.07V256.406H290.602V258.914ZM324.211 250.922V266.953H321.586V265.102H317.438V263.273H321.586V250.922H324.211ZM324.703 269.555V271.664H309.164V265.406H311.766V269.555H324.703ZM306.352 260.438C310.266 260.414 315.516 260.367 320.016 259.805L320.156 261.68C318.41 261.973 316.605 262.172 314.812 262.289V266.367H312.211V262.43C310.23 262.512 308.344 262.523 306.68 262.523L306.352 260.438ZM313.266 251.695C316.359 251.695 318.516 253.219 318.539 255.445C318.516 257.719 316.359 259.172 313.266 259.172C310.125 259.172 307.969 257.719 307.969 255.445C307.969 253.219 310.125 251.695 313.266 251.695ZM313.266 253.617C311.578 253.617 310.43 254.297 310.43 255.445C310.43 256.594 311.578 257.273 313.266 257.273C314.883 257.273 316.031 256.594 316.055 255.445C316.031 254.297 314.883 253.617 313.266 253.617Z" fill="white"/>
<path d="M286.57 319V302.031H297.445V304.586H289.617V309.227H296.695V311.781H289.617V319H286.57ZM307.875 319H304.617L310.594 302.031H314.344L320.344 319H317.086L315.68 314.805H309.281L307.875 319ZM310.102 312.344H314.859L312.539 305.5H312.398L310.102 312.344ZM334.359 313.305H337.148L338.602 315.203C339.551 314.195 340.125 312.613 340.125 310.516C340.125 306.648 338.18 304.539 335.414 304.539C332.648 304.539 330.703 306.648 330.703 310.516C330.703 314.383 332.648 316.492 335.414 316.492C335.859 316.492 336.281 316.434 336.68 316.328L334.359 313.305ZM343.195 310.516C343.195 313.598 342.141 315.965 340.453 317.453L342.797 320.477H339.82L338.414 318.672C337.5 319.047 336.492 319.234 335.414 319.234C330.961 319.234 327.633 315.977 327.633 310.516C327.633 305.031 330.961 301.797 335.414 301.797C339.867 301.797 343.195 305.031 343.195 310.516Z" fill="white"/>
<path d="M293.788 489.105C292.192 489.18 291.102 489.435 290.149 489.809C289.163 490.194 288.327 490.709 287.495 491.544C286.664 492.379 286.152 493.215 285.77 494.203C285.401 495.157 285.151 496.248 285.08 497.845C285.01 499.442 284.994 499.955 285.002 504.029C285.01 508.102 285.028 508.613 285.105 510.213C285.181 511.809 285.435 512.898 285.809 513.851C286.194 514.837 286.709 515.673 287.544 516.505C288.379 517.337 289.215 517.848 290.205 518.23C291.159 518.599 292.25 518.85 293.847 518.92C295.443 518.99 295.957 519.006 300.029 518.998C304.102 518.99 304.614 518.972 306.214 518.896C307.814 518.821 308.898 518.565 309.851 518.192C310.838 517.807 311.674 517.292 312.505 516.457C313.336 515.622 313.848 514.785 314.229 513.797C314.599 512.843 314.85 511.752 314.919 510.156C314.989 508.555 315.006 508.044 314.998 503.971C314.99 499.898 314.972 499.388 314.896 497.788C314.82 496.189 314.566 495.102 314.192 494.149C313.806 493.162 313.292 492.328 312.457 491.495C311.623 490.663 310.785 490.151 309.797 489.771C308.843 489.401 307.752 489.15 306.155 489.081C304.559 489.012 304.045 488.994 299.971 489.002C295.898 489.01 295.388 489.027 293.788 489.105ZM293.963 516.221C292.5 516.158 291.706 515.915 291.177 515.711C290.476 515.441 289.977 515.115 289.45 514.593C288.922 514.07 288.598 513.569 288.325 512.87C288.119 512.341 287.872 511.548 287.803 510.085C287.729 508.504 287.713 508.03 287.705 504.025C287.696 500.02 287.711 499.546 287.78 497.965C287.843 496.504 288.087 495.709 288.29 495.18C288.56 494.478 288.886 493.98 289.409 493.453C289.933 492.926 290.432 492.601 291.132 492.328C291.661 492.121 292.454 491.876 293.916 491.806C295.498 491.731 295.972 491.716 299.976 491.707C303.98 491.699 304.455 491.714 306.038 491.783C307.499 491.847 308.294 492.089 308.822 492.293C309.524 492.563 310.022 492.888 310.55 493.412C311.077 493.936 311.402 494.434 311.675 495.136C311.882 495.663 312.127 496.456 312.196 497.918C312.272 499.5 312.289 499.975 312.296 503.978C312.303 507.982 312.289 508.458 312.22 510.038C312.156 511.501 311.913 512.295 311.71 512.825C311.44 513.526 311.114 514.025 310.59 514.552C310.067 515.079 309.568 515.403 308.867 515.677C308.339 515.883 307.545 516.129 306.085 516.199C304.503 516.273 304.029 516.289 300.023 516.297C296.018 516.306 295.545 516.29 293.963 516.221M306.191 495.983C306.192 496.339 306.298 496.687 306.496 496.983C306.694 497.278 306.976 497.509 307.305 497.644C307.634 497.78 307.996 497.815 308.345 497.745C308.695 497.675 309.015 497.503 309.266 497.25C309.518 496.998 309.688 496.677 309.757 496.328C309.826 495.979 309.79 495.617 309.653 495.288C309.516 494.959 309.285 494.679 308.988 494.481C308.692 494.284 308.344 494.179 307.988 494.18C307.51 494.181 307.053 494.371 306.716 494.71C306.379 495.048 306.19 495.506 306.191 495.983ZM292.298 504.015C292.307 508.269 295.761 511.71 300.014 511.702C304.268 511.693 307.711 508.239 307.703 503.985C307.694 499.731 304.239 496.289 299.985 496.298C295.731 496.306 292.29 499.762 292.298 504.015ZM295 504.01C294.998 503.021 295.289 502.053 295.837 501.23C296.385 500.407 297.165 499.764 298.077 499.384C298.99 499.004 299.995 498.903 300.966 499.094C301.936 499.285 302.828 499.759 303.529 500.457C304.229 501.155 304.707 502.045 304.902 503.014C305.097 503.984 305 504.99 304.623 505.904C304.247 506.818 303.607 507.6 302.786 508.152C301.965 508.703 300.999 508.998 300.01 509C299.353 509.001 298.703 508.873 298.096 508.623C297.488 508.373 296.936 508.006 296.471 507.542C296.006 507.079 295.637 506.528 295.384 505.922C295.132 505.316 295.001 504.666 295 504.01Z" fill="white"/>
<path d="M329.484 507.922C328.031 507.922 326.922 506.781 326.922 504.719C326.922 502.625 328.078 501.531 329.484 501.531C330.5 501.531 331 502.141 331.203 502.578H331.281V501.672H332.797V505.844C332.812 506.375 333.031 506.625 333.453 506.625C334.25 506.625 334.765 505.703 334.765 504.312C334.781 501.594 332.859 499.812 330.015 499.812C327.109 499.812 325.25 501.922 325.25 504.719C325.25 507.75 326.875 509.656 329.969 509.641C331.078 509.641 331.906 509.547 332.797 509.312V510.75C331.969 510.984 331 511.125 329.969 511.125C326.047 511.125 323.765 508.625 323.765 504.719C323.75 501.016 326.344 498.328 330.015 498.328C333.703 498.328 336.265 500.844 336.265 504.266C336.265 506.641 335.062 508 333.312 508C332.273 508 331.492 507.5 331.344 506.797H331.265C331.062 507.234 330.547 507.922 329.484 507.922ZM329.953 506.484C330.844 506.5 331.312 505.797 331.312 504.719C331.312 503.641 330.844 502.953 329.953 502.953C329.094 502.953 328.609 503.688 328.625 504.719C328.609 505.75 329.109 506.484 329.953 506.484ZM337.969 509.5V501.016H339.875V502.453H339.984C340.328 501.484 341.187 500.906 342.312 500.906C343.469 500.906 344.281 501.484 344.609 502.453H344.703C345.078 501.516 346.015 500.906 347.25 500.906C348.797 500.906 349.89 501.906 349.89 503.797V509.5H347.906V504.109C347.906 503.047 347.265 502.578 346.453 502.578C345.469 502.578 344.906 503.25 344.906 504.203V509.5H342.969V504.031C342.969 503.156 342.375 502.578 341.531 502.578C340.672 502.578 339.969 503.281 339.969 504.344V509.5H337.969ZM351.797 509.5V501.016H353.797V509.5H351.797ZM352.812 499.812C352.187 499.812 351.656 499.328 351.656 498.719C351.656 498.125 352.187 497.641 352.812 497.641C353.453 497.641 353.969 498.125 353.969 498.719C353.969 499.328 353.453 499.812 352.812 499.812ZM355.703 509.5V501.016H357.64V502.422H357.734C358.031 501.453 358.859 500.891 359.828 500.891C360.047 500.891 360.359 500.906 360.547 500.938V502.781C360.375 502.719 359.953 502.656 359.625 502.656C358.515 502.656 357.703 503.422 357.703 504.5V509.5H355.703ZM361.734 509.5V501.016H363.734V509.5H361.734ZM362.75 499.812C362.125 499.812 361.594 499.328 361.594 498.719C361.594 498.125 362.125 497.641 362.75 497.641C363.39 497.641 363.906 498.125 363.906 498.719C363.906 499.328 363.39 499.812 362.75 499.812ZM365.64 509.5V501.016H367.547V502.453H367.656C368 501.484 368.859 500.906 369.984 500.906C371.14 500.906 371.953 501.484 372.281 502.453H372.375C372.75 501.516 373.687 500.906 374.922 500.906C376.469 500.906 377.562 501.906 377.562 503.797V509.5H375.578V504.109C375.578 503.047 374.937 502.578 374.125 502.578C373.14 502.578 372.578 503.25 372.578 504.203V509.5H370.64V504.031C370.64 503.156 370.047 502.578 369.203 502.578C368.344 502.578 367.64 503.281 367.64 504.344V509.5H365.64ZM385.734 509.5V511.094H378.422V509.5H385.734ZM387.312 509.5V501.016H389.219V502.453H389.328C389.672 501.484 390.531 500.906 391.656 500.906C392.812 500.906 393.625 501.484 393.953 502.453H394.047C394.422 501.516 395.359 500.906 396.594 500.906C398.14 500.906 399.234 501.906 399.234 503.797V509.5H397.25V504.109C397.25 503.047 396.609 502.578 395.797 502.578C394.812 502.578 394.25 503.25 394.25 504.203V509.5H392.312V504.031C392.312 503.156 391.719 502.578 390.875 502.578C390.015 502.578 389.312 503.281 389.312 504.344V509.5H387.312ZM405.953 503.438C405.828 502.797 405.297 502.391 404.453 502.391C403.594 502.391 402.969 502.812 402.984 503.391C402.969 503.828 403.328 504.156 404.187 504.359L405.625 504.656C407.234 505.016 408 505.75 408.015 506.969C408 508.562 406.609 509.672 404.39 509.672C402.234 509.672 400.953 508.703 400.75 507.078H402.781C402.906 507.797 403.469 508.156 404.39 508.156C405.344 508.156 405.984 507.766 405.984 507.141C405.984 506.656 405.594 506.344 404.75 506.156L403.39 505.859C401.812 505.547 401 504.719 401 503.5C401 501.938 402.344 500.906 404.422 500.906C406.453 500.906 407.703 501.891 407.844 503.438H405.953ZM413.234 512.859C410.984 512.859 409.562 511.859 409.422 510.266H411.406C411.547 511 412.25 511.359 413.265 511.359C414.453 511.359 415.234 510.844 415.234 509.594V507.969H415.14C414.828 508.594 414.156 509.375 412.687 509.375C410.734 509.375 409.187 507.953 409.187 505.188C409.187 502.391 410.734 500.906 412.703 500.906C414.203 500.906 414.828 501.797 415.14 502.406H415.234V501.016H417.203V509.641C417.203 511.812 415.531 512.859 413.234 512.859ZM413.234 507.812C414.515 507.812 415.25 506.844 415.25 505.219C415.25 503.609 414.531 502.531 413.234 502.531C411.906 502.531 411.219 503.672 411.219 505.219C411.219 506.781 411.922 507.812 413.234 507.812Z" fill="white"/>
<path d="M290.531 388.688V400H288.484V390.672H288.422L285.781 392.359V390.5L288.578 388.688H290.531ZM297.297 400.156C295.031 400.156 293.375 398.812 293.312 396.938H295.297C295.359 397.859 296.219 398.516 297.297 398.516C298.562 398.516 299.469 397.594 299.469 396.344C299.469 395.047 298.531 394.125 297.234 394.125C296.359 394.109 295.719 394.422 295.359 395.094H293.469L294.156 388.688H300.844V390.391H295.828L295.484 393.391H295.594C296.031 392.891 296.859 392.531 297.781 392.531C299.891 392.531 301.438 394.109 301.438 396.281C301.438 398.547 299.734 400.156 297.297 400.156ZM314.484 387.266V401.391H312.734V387.266H314.484ZM310.266 388.766C310.266 392.969 308.641 396.547 303.688 398.891L302.781 397.5C306.477 395.742 308.195 393.352 308.5 390.141H303.5V388.766H310.266ZM333.203 395.484V396.859H327.578V401.391H325.859V396.859H320.297V395.484H333.203ZM323.578 387.828V389.562H329.891V387.828H331.641V394.016H321.859V387.828H323.578ZM323.578 392.609H329.891V390.938H323.578V392.609ZM339.203 389.812C339.203 391.547 340.328 393.172 342.531 393.844L341.703 395.203C340.117 394.711 338.992 393.703 338.375 392.422C337.75 393.906 336.555 395.086 334.859 395.656L333.984 394.281C336.266 393.531 337.453 391.703 337.453 389.828V389.656H334.469V388.25H342.141V389.656H339.203V389.812ZM345.281 387.266V390.656H347.25V392.078H345.281V395.688H343.547V387.266H345.281ZM340.688 396C343.609 396 345.406 396.984 345.422 398.672C345.406 400.375 343.609 401.375 340.688 401.375C337.734 401.375 335.906 400.375 335.906 398.672C335.906 396.984 337.734 396 340.688 396ZM340.688 397.359C338.75 397.359 337.641 397.812 337.641 398.672C337.641 399.547 338.75 400.016 340.688 400.016C342.625 400.016 343.703 399.547 343.703 398.672C343.703 397.812 342.625 397.359 340.688 397.359ZM363.516 387.266V401.406H361.766V387.266H363.516ZM355.906 388.297C358.031 388.297 359.578 390.234 359.594 393.281C359.578 396.359 358.031 398.281 355.906 398.281C353.766 398.281 352.219 396.359 352.219 393.281C352.219 390.234 353.766 388.297 355.906 388.297ZM355.906 389.859C354.703 389.859 353.891 391.125 353.891 393.281C353.891 395.453 354.703 396.719 355.906 396.719C357.094 396.719 357.906 395.453 357.906 393.281C357.906 391.125 357.094 389.859 355.906 389.859ZM370.594 389.516C370.594 391.297 371.75 392.969 373.922 393.656L372.984 395.016C371.461 394.5 370.367 393.469 369.766 392.156C369.141 393.656 368 394.836 366.375 395.406L365.438 394.047C367.719 393.25 368.844 391.375 368.859 389.359V388.016H370.594V389.516ZM376.734 387.266V390.703H378.703V392.141H376.734V395.719H375V387.266H376.734ZM372.141 396.031C375.062 396.016 376.859 397.016 376.875 398.688C376.859 400.391 375.062 401.375 372.141 401.375C369.188 401.375 367.359 400.391 367.359 398.688C367.359 397.016 369.188 396.016 372.141 396.031ZM372.141 397.391C370.203 397.391 369.094 397.859 369.094 398.688C369.094 399.562 370.203 400 372.141 400C374.078 400 375.156 399.562 375.156 398.688C375.156 397.859 374.078 397.391 372.141 397.391ZM391.25 387.281V397.641H389.516V394.141H386.156C385.477 394.898 384.477 395.359 383.344 395.359C381.219 395.359 379.609 393.828 379.609 391.75C379.609 389.641 381.219 388.125 383.344 388.125C384.469 388.125 385.461 388.578 386.141 389.328H389.516V387.281H391.25ZM391.609 399.703V401.109H381.984V396.578H383.719V399.703H391.609ZM383.344 389.672C382.125 389.672 381.266 390.484 381.266 391.75C381.266 393 382.125 393.812 383.344 393.812C384.5 393.812 385.375 393 385.391 391.75C385.375 390.484 384.5 389.672 383.344 389.672ZM386.906 390.734C386.992 391.055 387.047 391.391 387.047 391.75C387.047 392.094 387 392.422 386.922 392.734H389.516V390.734H386.906Z" fill="white"/>
<path d="M421.814 387.479V402.67H419.866V387.479H421.814Z" fill="white"/>
<path d="M435.109 400.156C432.391 400.156 430.766 398.047 430.766 394.344C430.766 390.656 432.391 388.531 435.109 388.531C437.812 388.531 439.453 390.656 439.453 394.344C439.453 398.047 437.828 400.156 435.109 400.156ZM435.109 398.453C436.531 398.453 437.406 397.062 437.406 394.344C437.406 391.641 436.516 390.219 435.109 390.219C433.703 390.219 432.812 391.641 432.812 394.344C432.812 397.062 433.688 398.453 435.109 398.453ZM445.75 388.688V400H443.703V390.672H443.641L441 392.359V390.5L443.797 388.688H445.75ZM452.672 400.156C449.953 400.156 448.328 398.047 448.328 394.344C448.328 390.656 449.953 388.531 452.672 388.531C455.375 388.531 457.016 390.656 457.016 394.344C457.016 398.047 455.391 400.156 452.672 400.156ZM452.672 398.453C454.094 398.453 454.969 397.062 454.969 394.344C454.969 391.641 454.078 390.219 452.672 390.219C451.266 390.219 450.375 391.641 450.375 394.344C450.375 397.062 451.25 398.453 452.672 398.453ZM463.875 393.531V395.172H458.781V393.531H463.875ZM469.672 395.047H468.344L468.469 392.797L466.578 394.031L465.906 392.891L467.922 391.875L465.906 390.844L466.578 389.703L468.469 390.938L468.344 388.688H469.672L469.547 390.938L471.438 389.703L472.094 390.844L470.094 391.875L472.094 392.891L471.438 394.031L469.547 392.797L469.672 395.047ZM477.938 395.047H476.609L476.734 392.797L474.844 394.031L474.172 392.891L476.188 391.875L474.172 390.844L474.844 389.703L476.734 390.938L476.609 388.688H477.938L477.812 390.938L479.703 389.703L480.359 390.844L478.359 391.875L480.359 392.891L479.703 394.031L477.812 392.797L477.938 395.047ZM486.203 395.047H484.875L485 392.797L483.109 394.031L482.438 392.891L484.453 391.875L482.438 390.844L483.109 389.703L485 390.938L484.875 388.688H486.203L486.078 390.938L487.969 389.703L488.625 390.844L486.625 391.875L488.625 392.891L487.969 394.031L486.078 392.797L486.203 395.047ZM494.469 395.047H493.141L493.266 392.797L491.375 394.031L490.703 392.891L492.719 391.875L490.703 390.844L491.375 389.703L493.266 390.938L493.141 388.688H494.469L494.344 390.938L496.234 389.703L496.891 390.844L494.891 391.875L496.891 392.891L496.234 394.031L494.344 392.797L494.469 395.047ZM504.031 394.469V396.109H498.938V394.469H504.031ZM509.828 395.047H508.5L508.625 392.797L506.734 394.031L506.062 392.891L508.078 391.875L506.062 390.844L506.734 389.703L508.625 390.938L508.5 388.688H509.828L509.703 390.938L511.594 389.703L512.25 390.844L510.25 391.875L512.25 392.891L511.594 394.031L509.703 392.797L509.828 395.047ZM518.094 395.047H516.766L516.891 392.797L515 394.031L514.328 392.891L516.344 391.875L514.328 390.844L515 389.703L516.891 390.938L516.766 388.688H518.094L517.969 390.938L519.859 389.703L520.516 390.844L518.516 391.875L520.516 392.891L519.859 394.031L517.969 392.797L518.094 395.047ZM526.359 395.047H525.031L525.156 392.797L523.266 394.031L522.594 392.891L524.609 391.875L522.594 390.844L523.266 389.703L525.156 390.938L525.031 388.688H526.359L526.234 390.938L528.125 389.703L528.781 390.844L526.781 391.875L528.781 392.891L528.125 394.031L526.234 392.797L526.359 395.047ZM534.625 395.047H533.297L533.422 392.797L531.531 394.031L530.859 392.891L532.875 391.875L530.859 390.844L531.531 389.703L533.422 390.938L533.297 388.688H534.625L534.5 390.938L536.391 389.703L537.047 390.844L535.047 391.875L537.047 392.891L536.391 394.031L534.5 392.797L534.625 395.047Z" fill="white"/>
<path d="M290.531 412.688V424H288.484V414.672H288.422L285.781 416.359V414.5L288.578 412.688H290.531ZM297.297 424.156C295.031 424.156 293.375 422.812 293.312 420.938H295.297C295.359 421.859 296.219 422.516 297.297 422.516C298.562 422.516 299.469 421.594 299.469 420.344C299.469 419.047 298.531 418.125 297.234 418.125C296.359 418.109 295.719 418.422 295.359 419.094H293.469L294.156 412.688H300.844V414.391H295.828L295.484 417.391H295.594C296.031 416.891 296.859 416.531 297.781 416.531C299.891 416.531 301.438 418.109 301.438 420.281C301.438 422.547 299.734 424.156 297.297 424.156ZM314.484 411.266V425.391H312.734V411.266H314.484ZM310.266 412.766C310.266 416.969 308.641 420.547 303.688 422.891L302.781 421.5C306.477 419.742 308.195 417.352 308.5 414.141H303.5V412.766H310.266ZM333.203 419.484V420.859H327.578V425.391H325.859V420.859H320.297V419.484H333.203ZM323.578 411.828V413.562H329.891V411.828H331.641V418.016H321.859V411.828H323.578ZM323.578 416.609H329.891V414.938H323.578V416.609ZM347.031 419.484V420.859H341.406V425.391H339.688V420.859H334.125V419.484H347.031ZM337.406 411.828V413.562H343.719V411.828H345.469V418.016H335.688V411.828H337.406ZM337.406 416.609H343.719V414.938H337.406V416.609ZM353.031 413.812C353.031 415.547 354.156 417.172 356.359 417.844L355.531 419.203C353.945 418.711 352.82 417.703 352.203 416.422C351.578 417.906 350.383 419.086 348.688 419.656L347.812 418.281C350.094 417.531 351.281 415.703 351.281 413.828V413.656H348.297V412.25H355.969V413.656H353.031V413.812ZM359.109 411.266V414.656H361.078V416.078H359.109V419.688H357.375V411.266H359.109ZM354.516 420C357.438 420 359.234 420.984 359.25 422.672C359.234 424.375 357.438 425.375 354.516 425.375C351.562 425.375 349.734 424.375 349.734 422.672C349.734 420.984 351.562 420 354.516 420ZM354.516 421.359C352.578 421.359 351.469 421.812 351.469 422.672C351.469 423.547 352.578 424.016 354.516 424.016C356.453 424.016 357.531 423.547 357.531 422.672C357.531 421.812 356.453 421.359 354.516 421.359ZM372.016 411.578C375.062 411.578 377.078 412.688 377.078 414.469C377.078 416.219 375.062 417.328 372.016 417.328C368.969 417.328 366.953 416.219 366.953 414.469C366.953 412.688 368.969 411.578 372.016 411.578ZM372.016 412.953C370.078 412.953 368.812 413.5 368.828 414.469C368.812 415.406 370.078 415.953 372.016 415.953C373.969 415.953 375.219 415.406 375.219 414.469C375.219 413.5 373.969 412.953 372.016 412.953ZM378.484 418.188V419.594H375.375V422.25H373.641V419.594H371.781V422.25H370.031V419.594H365.594V418.188H378.484ZM377.188 423.703V425.109H367.094V421.031H368.844V423.703H377.188ZM390.484 411.266V416.625H392.656V418.047H390.484V425.406H388.75V411.266H390.484ZM386.609 412.609V414.016H381.734V420.5C383.93 420.5 385.664 420.391 387.609 420.047L387.812 421.516C385.625 421.891 383.719 421.953 381.172 421.953H380V412.609H386.609ZM405.078 411.281V419.531H403.344V417.969H399.984V416.562H403.344V415.047H400.125C399.227 417.297 397.172 418.867 394.094 419.719L393.391 418.344C396.695 417.445 398.453 415.773 398.734 413.672H394.141V412.266H400.625C400.625 412.758 400.586 413.227 400.5 413.672H403.344V411.281H405.078ZM400.406 419.688C403.266 419.688 405.172 420.766 405.172 422.5C405.172 424.234 403.266 425.312 400.406 425.312C397.516 425.312 395.609 424.234 395.609 422.5C395.609 420.766 397.516 419.688 400.406 419.688ZM400.406 421.047C398.5 421.047 397.344 421.562 397.344 422.5C397.344 423.422 398.5 423.938 400.406 423.938C402.266 423.938 403.438 423.422 403.438 422.5C403.438 421.562 402.266 421.047 400.406 421.047Z" fill="white"/>
<path d="M421.814 411.479V426.67H419.866V411.479H421.814Z" fill="white"/>
<path d="M435.109 424.156C432.391 424.156 430.766 422.047 430.766 418.344C430.766 414.656 432.391 412.531 435.109 412.531C437.812 412.531 439.453 414.656 439.453 418.344C439.453 422.047 437.828 424.156 435.109 424.156ZM435.109 422.453C436.531 422.453 437.406 421.062 437.406 418.344C437.406 415.641 436.516 414.219 435.109 414.219C433.703 414.219 432.812 415.641 432.812 418.344C432.812 421.062 433.688 422.453 435.109 422.453ZM445.75 412.688V424H443.703V414.672H443.641L441 416.359V414.5L443.797 412.688H445.75ZM452.672 424.156C449.953 424.156 448.328 422.047 448.328 418.344C448.328 414.656 449.953 412.531 452.672 412.531C455.375 412.531 457.016 414.656 457.016 418.344C457.016 422.047 455.391 424.156 452.672 424.156ZM452.672 422.453C454.094 422.453 454.969 421.062 454.969 418.344C454.969 415.641 454.078 414.219 452.672 414.219C451.266 414.219 450.375 415.641 450.375 418.344C450.375 421.062 451.25 422.453 452.672 422.453ZM463.875 417.531V419.172H458.781V417.531H463.875ZM469.672 419.047H468.344L468.469 416.797L466.578 418.031L465.906 416.891L467.922 415.875L465.906 414.844L466.578 413.703L468.469 414.938L468.344 412.688H469.672L469.547 414.938L471.438 413.703L472.094 414.844L470.094 415.875L472.094 416.891L471.438 418.031L469.547 416.797L469.672 419.047ZM477.938 419.047H476.609L476.734 416.797L474.844 418.031L474.172 416.891L476.188 415.875L474.172 414.844L474.844 413.703L476.734 414.938L476.609 412.688H477.938L477.812 414.938L479.703 413.703L480.359 414.844L478.359 415.875L480.359 416.891L479.703 418.031L477.812 416.797L477.938 419.047ZM486.203 419.047H484.875L485 416.797L483.109 418.031L482.438 416.891L484.453 415.875L482.438 414.844L483.109 413.703L485 414.938L484.875 412.688H486.203L486.078 414.938L487.969 413.703L488.625 414.844L486.625 415.875L488.625 416.891L487.969 418.031L486.078 416.797L486.203 419.047ZM494.469 419.047H493.141L493.266 416.797L491.375 418.031L490.703 416.891L492.719 415.875L490.703 414.844L491.375 413.703L493.266 414.938L493.141 412.688H494.469L494.344 414.938L496.234 413.703L496.891 414.844L494.891 415.875L496.891 416.891L496.234 418.031L494.344 416.797L494.469 419.047ZM504.031 418.469V420.109H498.938V418.469H504.031ZM509.828 419.047H508.5L508.625 416.797L506.734 418.031L506.062 416.891L508.078 415.875L506.062 414.844L506.734 413.703L508.625 414.938L508.5 412.688H509.828L509.703 414.938L511.594 413.703L512.25 414.844L510.25 415.875L512.25 416.891L511.594 418.031L509.703 416.797L509.828 419.047ZM518.094 419.047H516.766L516.891 416.797L515 418.031L514.328 416.891L516.344 415.875L514.328 414.844L515 413.703L516.891 414.938L516.766 412.688H518.094L517.969 414.938L519.859 413.703L520.516 414.844L518.516 415.875L520.516 416.891L519.859 418.031L517.969 416.797L518.094 419.047ZM526.359 419.047H525.031L525.156 416.797L523.266 418.031L522.594 416.891L524.609 415.875L522.594 414.844L523.266 413.703L525.156 414.938L525.031 412.688H526.359L526.234 414.938L528.125 413.703L528.781 414.844L526.781 415.875L528.781 416.891L528.125 418.031L526.234 416.797L526.359 419.047ZM534.625 419.047H533.297L533.422 416.797L531.531 418.031L530.859 416.891L532.875 415.875L530.859 414.844L531.531 413.703L533.422 414.938L533.297 412.688H534.625L534.5 414.938L536.391 413.703L537.047 414.844L535.047 415.875L537.047 416.891L536.391 418.031L534.5 416.797L534.625 419.047Z" fill="white"/>
<path d="M906 621.442C909.314 621.442 912 624.155 912 627.5C912 630.846 909.314 633.558 906 633.558C902.686 633.558 900 630.846 900 627.5C900 624.155 902.686 621.442 906 621.442ZM906 622.654C904.727 622.654 903.506 623.165 902.606 624.073C901.706 624.982 901.2 626.215 901.2 627.5C901.2 628.786 901.706 630.018 902.606 630.927C903.506 631.836 904.727 632.347 906 632.347C907.273 632.347 908.494 631.836 909.394 630.927C910.294 630.018 910.8 628.786 910.8 627.5C910.8 626.215 910.294 624.982 909.394 624.073C908.494 623.165 907.273 622.654 906 622.654ZM906 624.471C906.426 624.471 906.846 624.563 907.234 624.739C907.622 624.916 907.968 625.174 908.25 625.496C908.355 625.617 908.409 625.775 908.399 625.935C908.389 626.095 908.317 626.245 908.197 626.352C908.078 626.458 907.922 626.512 907.763 626.502C907.604 626.492 907.455 626.419 907.35 626.298C907.108 626.021 906.789 625.825 906.434 625.737C906.079 625.648 905.706 625.67 905.364 625.8C905.022 625.931 904.727 626.163 904.519 626.467C904.311 626.771 904.2 627.131 904.2 627.5C904.2 627.869 904.311 628.23 904.519 628.534C904.727 628.837 905.022 629.07 905.364 629.2C905.706 629.331 906.079 629.353 906.434 629.264C906.789 629.175 907.108 628.979 907.35 628.702C907.455 628.582 907.604 628.508 907.763 628.498C907.922 628.488 908.078 628.542 908.197 628.649C908.317 628.755 908.389 628.905 908.399 629.066C908.409 629.226 908.355 629.384 908.25 629.504C907.918 629.884 907.498 630.173 907.027 630.346C906.556 630.52 906.049 630.571 905.554 630.495C905.058 630.42 904.589 630.221 904.189 629.915C903.79 629.609 903.472 629.208 903.266 628.746C903.06 628.285 902.971 627.779 903.009 627.274C903.046 626.77 903.208 626.282 903.48 625.857C903.752 625.432 904.125 625.082 904.565 624.84C905.005 624.598 905.499 624.471 906 624.471Z" fill="white" fill-opacity="0.87"/>
<path d="M824.87 625.328C824.624 624.057 823.571 623.346 822.313 623.346C820.604 623.346 819.333 624.658 819.333 627.051C819.333 629.457 820.618 630.756 822.313 630.756C823.558 630.756 824.61 630.059 824.87 628.801L826.388 628.814C826.073 630.77 824.474 632.137 822.3 632.137C819.716 632.137 817.843 630.209 817.843 627.051C817.843 623.879 819.729 621.965 822.3 621.965C824.392 621.965 826.046 623.195 826.388 625.328H824.87ZM836.614 627.051C836.614 630.209 834.714 632.137 832.157 632.137C829.573 632.137 827.687 630.209 827.687 627.051C827.687 623.879 829.573 621.965 832.157 621.965C834.714 621.965 836.614 623.879 836.614 627.051ZM835.124 627.051C835.124 624.645 833.853 623.346 832.157 623.346C830.448 623.346 829.177 624.645 829.177 627.051C829.177 629.457 830.448 630.756 832.157 630.756C833.853 630.756 835.124 629.457 835.124 627.051ZM838.31 632V622.102H841.837C844.134 622.102 845.269 623.482 845.269 625.314C845.269 627.133 844.134 628.527 841.837 628.527H839.813V632H838.31ZM839.813 627.242H841.687C843.149 627.242 843.751 626.422 843.751 625.314C843.751 624.193 843.149 623.387 841.687 623.387H839.813V627.242ZM846.089 622.102H847.798L850.368 626.586H850.478L853.062 622.102H854.771L851.175 628.117V632H849.671V628.117L846.089 622.102ZM856.015 632V622.102H859.542C861.839 622.102 862.974 623.387 862.974 625.205C862.974 626.538 862.372 627.55 861.169 627.994L863.356 632H861.647L859.638 628.268H859.542H857.519V632H856.015ZM857.519 626.969H859.392C860.854 626.969 861.456 626.326 861.456 625.205C861.456 624.084 860.854 623.387 859.392 623.387H857.519V626.969ZM866.146 622.102V632H864.642V622.102H866.146ZM874.841 625.232C874.472 624.057 873.583 623.346 872.271 623.346C870.603 623.346 869.317 624.658 869.317 627.051C869.317 629.443 870.589 630.756 872.339 630.756C873.918 630.756 874.964 629.758 874.991 628.172H872.558V626.928H876.454V628.049C876.454 630.551 874.731 632.137 872.325 632.137C869.646 632.137 867.827 630.182 867.827 627.051C867.827 623.893 869.7 621.965 872.257 621.965C874.403 621.965 876.044 623.305 876.386 625.232H874.841ZM878.19 632V622.102H879.694V626.395H884.616V622.102H886.12V632H884.616V627.68H879.694V632H878.19ZM887.651 623.4V622.102H895.321V623.4H892.245V632H890.741V623.4H887.651Z" fill="white" fill-opacity="0.87"/>
<path d="M917.448 622.102H919.28L922.411 629.771H922.534L925.665 622.102H927.497V632H926.062V624.85H925.966L923.067 631.986H921.878L918.966 624.836H918.884V632H917.448V622.102ZM934.907 624.713C934.812 623.797 934.005 623.264 932.87 623.264C931.653 623.264 930.888 623.879 930.888 624.727C930.888 625.67 931.913 626.025 932.692 626.217L933.649 626.477C934.921 626.777 936.493 627.475 936.507 629.266C936.493 630.934 935.167 632.164 932.829 632.164C930.614 632.164 929.22 631.057 929.124 629.252H930.628C930.724 630.332 931.667 630.852 932.829 630.852C934.087 630.852 935.003 630.209 935.017 629.238C935.003 628.377 934.196 628.021 933.144 627.748L931.968 627.434C930.382 626.996 929.384 626.189 929.384 624.809C929.384 623.1 930.915 621.965 932.911 621.965C934.921 621.965 936.329 623.113 936.37 624.713H934.907ZM944.806 625.232C944.437 624.057 943.548 623.346 942.235 623.346C940.567 623.346 939.282 624.658 939.282 627.051C939.282 629.443 940.554 630.756 942.304 630.756C943.883 630.756 944.929 629.758 944.956 628.172H942.522V626.928H946.419V628.049C946.419 630.551 944.696 632.137 942.29 632.137C939.61 632.137 937.792 630.182 937.792 627.051C937.792 623.893 939.665 621.965 942.222 621.965C944.368 621.965 946.009 623.305 946.351 625.232H944.806ZM948.989 632.096C948.456 632.096 948.005 631.658 948.019 631.125C948.005 630.592 948.456 630.154 948.989 630.154C949.509 630.154 949.96 630.592 949.96 631.125C949.96 631.658 949.509 632.096 948.989 632.096ZM955.948 632H954.349L957.903 622.102H959.64L963.208 632H961.608L960.706 629.389H956.851L955.948 632ZM957.288 628.131H960.269L958.806 623.906H958.737L957.288 628.131ZM964.466 632V622.102H965.97V630.701H970.44V632H964.466ZM971.985 632V622.102H973.489V630.701H977.96V632H971.985ZM982.923 632V622.102H986.45C988.747 622.102 989.882 623.387 989.882 625.205C989.882 626.538 989.28 627.55 988.077 627.994L990.265 632H988.556L986.546 628.268H986.45H984.427V632H982.923ZM984.427 626.969H986.3C987.763 626.969 988.364 626.326 988.364 625.205C988.364 624.084 987.763 623.387 986.3 623.387H984.427V626.969ZM993.054 622.102V632H991.55V622.102H993.054ZM1001.75 625.232C1001.38 624.057 1000.49 623.346 999.179 623.346C997.511 623.346 996.226 624.658 996.226 627.051C996.226 629.443 997.497 630.756 999.247 630.756C1000.83 630.756 1001.87 629.758 1001.9 628.172H999.466V626.928H1003.36V628.049C1003.36 630.551 1001.64 632.137 999.233 632.137C996.554 632.137 994.735 630.182 994.735 627.051C994.735 623.893 996.608 621.965 999.165 621.965C1001.31 621.965 1002.95 623.305 1003.29 625.232H1001.75ZM1005.1 632V622.102H1006.6V626.395H1011.52V622.102H1013.03V632H1011.52V627.68H1006.6V632H1005.1ZM1014.56 623.4V622.102H1022.23V623.4H1019.15V632H1017.65V623.4H1014.56ZM1029.15 624.713C1029.05 623.797 1028.25 623.264 1027.11 623.264C1025.89 623.264 1025.13 623.879 1025.13 624.727C1025.13 625.67 1026.15 626.025 1026.93 626.217L1027.89 626.477C1029.16 626.777 1030.73 627.475 1030.75 629.266C1030.73 630.934 1029.41 632.164 1027.07 632.164C1024.85 632.164 1023.46 631.057 1023.36 629.252H1024.87C1024.96 630.332 1025.91 630.852 1027.07 630.852C1028.33 630.852 1029.24 630.209 1029.26 629.238C1029.24 628.377 1028.44 628.021 1027.38 627.748L1026.21 627.434C1024.62 626.996 1023.62 626.189 1023.62 624.809C1023.62 623.1 1025.16 621.965 1027.15 621.965C1029.16 621.965 1030.57 623.113 1030.61 624.713H1029.15ZM1035.78 632V622.102H1039.31C1041.6 622.102 1042.74 623.387 1042.74 625.205C1042.74 626.538 1042.14 627.55 1040.93 627.994L1043.12 632H1041.41L1039.4 628.268H1039.31H1037.28V632H1035.78ZM1037.28 626.969H1039.16C1040.62 626.969 1041.22 626.326 1041.22 625.205C1041.22 624.084 1040.62 623.387 1039.16 623.387H1037.28V626.969ZM1044.41 632V622.102H1050.61V623.4H1045.91V626.395H1050.28V627.68H1045.91V630.701H1050.67V632H1044.41ZM1057.84 624.713C1057.75 623.797 1056.94 623.264 1055.81 623.264C1054.59 623.264 1053.83 623.879 1053.83 624.727C1053.83 625.67 1054.85 626.025 1055.63 626.217L1056.59 626.477C1057.86 626.777 1059.43 627.475 1059.44 629.266C1059.43 630.934 1058.1 632.164 1055.77 632.164C1053.55 632.164 1052.16 631.057 1052.06 629.252H1053.57C1053.66 630.332 1054.6 630.852 1055.77 630.852C1057.02 630.852 1057.94 630.209 1057.95 629.238C1057.94 628.377 1057.13 628.021 1056.08 627.748L1054.91 627.434C1053.32 626.996 1052.32 626.189 1052.32 624.809C1052.32 623.1 1053.85 621.965 1055.85 621.965C1057.86 621.965 1059.27 623.113 1059.31 624.713H1057.84ZM1061.06 632V622.102H1067.26V623.4H1062.56V626.395H1066.94V627.68H1062.56V630.701H1067.32V632H1061.06ZM1069.11 632V622.102H1072.64C1074.93 622.102 1076.07 623.387 1076.07 625.205C1076.07 626.538 1075.47 627.55 1074.26 627.994L1076.45 632H1074.74L1072.73 628.268H1072.64H1070.61V632H1069.11ZM1070.61 626.969H1072.49C1073.95 626.969 1074.55 626.326 1074.55 625.205C1074.55 624.084 1073.95 623.387 1072.49 623.387H1070.61V626.969ZM1078.37 622.102L1081.11 630.154H1081.22L1083.97 622.102H1085.6L1082.03 632H1080.29L1076.74 622.102H1078.37ZM1086.86 632V622.102H1093.06V623.4H1088.36V626.395H1092.74V627.68H1088.36V630.701H1093.12V632H1086.86ZM1098.12 632H1094.91V622.102H1098.22C1101.13 622.102 1102.88 623.961 1102.88 627.037C1102.88 630.127 1101.13 632 1098.12 632ZM1096.41 630.688H1098.04C1100.28 630.688 1101.39 629.375 1101.39 627.037C1101.39 624.713 1100.28 623.414 1098.12 623.414H1096.41V630.688Z" fill="white" fill-opacity="0.87"/>
</svg>
