<svg width="1920" height="134" viewBox="0 0 1920 134" fill="none" xmlns="http://www.w3.org/2000/svg">
<g filter="url(#filter0_d_332_489)">
<rect width="1920" height="120" fill="white"/>
<path fill-rule="evenodd" clip-rule="evenodd" d="M340.765 48.6134C344.07 52.1974 343.662 57.6244 339.855 60.7351L327.5 70.8291C322.019 75.3074 313.94 75.5173 308.204 71.3303L303.409 67.8298L307.72 83.6124C308.976 88.2085 306.036 92.8925 301.153 94.0743C296.271 95.2562 291.295 92.4884 290.039 87.8923L283.514 64.0041C279.903 50.7867 296.115 40.7572 307.571 49.1206L317.419 56.3095L327.888 47.7563C331.696 44.6457 337.461 45.0294 340.765 48.6134Z" fill="url(#paint0_linear_332_489)" fill-opacity="0.85"/>
<path opacity="0.8" d="M342.986 75.5893C342.986 79.1371 340.11 82.0132 336.562 82.0132C333.014 82.0132 330.138 79.1371 330.138 75.5893C330.138 72.0414 333.014 69.1653 336.562 69.1653C340.11 69.1653 342.986 72.0414 342.986 75.5893Z" fill="#306BFF"/>
<path d="M337.847 87.34C337.847 89.4687 336.121 91.1944 333.993 91.1944C331.864 91.1944 330.138 89.4687 330.138 87.34C330.138 85.2113 331.864 83.4856 333.993 83.4856C336.121 83.4856 337.847 85.2113 337.847 87.34Z" fill="#4BA0FF"/>
<path d="M329.381 91.8425C329.381 92.9779 328.461 93.8982 327.325 93.8982C326.19 93.8982 325.27 92.9779 325.27 91.8425C325.27 90.7072 326.19 89.7869 327.325 89.7869C328.461 89.7869 329.381 90.7072 329.381 91.8425Z" fill="#66A8FF"/>
<rect width="156" height="72" transform="translate(1011 34)" fill="white"/>
<path d="M1048.31 62.8594H1051.43L1055.63 73.1328H1055.81L1060.01 62.8594H1063.13V77H1060.69V67.2734H1060.55L1056.63 76.9609H1054.81L1050.89 67.2344H1050.77V77H1048.31V62.8594ZM1073.45 66.7461C1073.33 65.5352 1072.29 64.832 1070.77 64.832C1069.17 64.832 1068.19 65.6133 1068.19 66.668C1068.19 67.8594 1069.44 68.3477 1070.61 68.6211L1071.94 68.9727C1074.05 69.4609 1076.08 70.5742 1076.08 73.0352C1076.08 75.5156 1074.13 77.2148 1070.73 77.2148C1067.43 77.2148 1065.36 75.6328 1065.24 72.8398H1067.74C1067.86 74.3242 1069.11 75.0469 1070.71 75.0469C1072.39 75.0469 1073.54 74.2266 1073.54 73.0156C1073.54 71.9023 1072.51 71.4336 1070.98 71.043L1069.38 70.6328C1067.06 70.0273 1065.61 68.8555 1065.61 66.8242C1065.61 64.3242 1067.84 62.6641 1070.81 62.6641C1073.82 62.6641 1075.85 64.3633 1075.89 66.7461H1073.45ZM1087.66 67.3711C1087.21 65.8672 1086.04 64.9492 1084.32 64.9492C1082.04 64.9492 1080.4 66.7266 1080.4 69.9102C1080.4 73.1328 1082.02 74.9102 1084.38 74.9102C1086.51 74.9102 1087.88 73.6211 1087.92 71.6094H1084.64V69.5977H1090.38V71.2969C1090.38 74.9297 1087.88 77.1953 1084.38 77.1953C1080.48 77.1953 1077.84 74.4219 1077.84 69.9297C1077.84 65.3984 1080.59 62.6641 1084.3 62.6641C1087.43 62.6641 1089.83 64.5977 1090.26 67.3711H1087.66ZM1112.84 74.793V76.5508H1096.71V74.793H1103.62V70.7109H1105.77V74.793H1112.84ZM1105.83 63.4453C1105.83 66.1211 1108.5 68.7578 1112.21 69.3438L1111.28 71.1406C1108.29 70.5742 1105.85 68.8652 1104.68 66.5508C1103.5 68.8555 1101.08 70.5938 1098.11 71.1406L1097.18 69.3438C1100.87 68.7578 1103.5 66.1016 1103.52 63.4453V62.1562H1105.83V63.4453ZM1129.15 61.082V78.7383H1127.06V69.6758H1125.16V77.918H1123.13V61.5508H1125.16V67.918H1127.06V61.082H1129.15ZM1121.63 63.3086C1121.63 68.0742 1120.12 72.1758 1115.11 75.0469L1113.86 73.543C1117.62 71.3652 1119.21 68.5723 1119.52 65.0469H1114.68V63.3086H1121.63Z" fill="#424242"/>
<rect width="142" height="72" transform="translate(1167 34)" fill="white"/>
<path d="M1219.72 74.793V76.6094H1203.59V74.793H1219.72ZM1218.31 62.7227V64.4609H1215.73V70.0859H1218.25V71.8047H1204.97V70.0859H1207.45V64.4609H1204.91V62.7227H1218.31ZM1209.62 70.0859H1213.59V64.4609H1209.62V70.0859ZM1237 74.8906V76.6875H1220.87V74.8906H1227.82V72.0195H1222.79V66.2383H1232.94V64.0508H1222.75V62.293H1235.09V67.957H1224.95V70.2422H1235.5V72.0195H1229.97V74.8906H1237ZM1249.78 61.4531V71.7266H1247.71V67.2734H1245.5V65.5156H1247.71V61.4531H1249.78ZM1243.61 64.8711C1243.61 66.7656 1244.66 68.6797 1246.91 69.5781L1245.81 71.2383C1244.25 70.6328 1243.2 69.5 1242.59 68.1328C1241.95 69.666 1240.82 70.9258 1239.15 71.6094L1238.02 69.9102C1240.38 68.9727 1241.5 66.8828 1241.5 64.8711V64.168H1238.53V62.4297H1246.4V64.168H1243.61V64.8711ZM1253.25 61.082V71.8438H1251.18V61.082H1253.25ZM1253.25 72.5469V78.7383H1251.09V74.2852H1241.16V72.5469H1253.25ZM1269.8 70.3398V72.0586H1257.41V62.4688H1269.64V64.2266H1259.62V66.3555H1269.23V68.0547H1259.62V70.3398H1269.8ZM1271.57 74.8125V76.5898H1255.44V74.8125H1271.57Z" fill="#424242"/>
<rect width="107" height="72" transform="translate(1309 34)" fill="white"/>
<path d="M1359.57 61.082V65.3789H1361.95V67.1953H1359.57V71.4727H1357.4V61.082H1359.57ZM1359.57 72.1758V75.9844H1349.98V77.1172H1360.2V78.582H1347.81V74.6367H1357.4V73.6406H1347.77V72.1758H1359.57ZM1345.43 69.6953C1346.76 69.6953 1348.28 69.6953 1349.88 69.6367V68.7578C1347.9 68.5625 1346.68 67.7617 1346.68 66.4531C1346.68 65.0273 1348.34 64.1875 1350.94 64.1875C1353.54 64.1875 1355.2 65.0273 1355.2 66.4531C1355.2 67.7422 1354 68.543 1352.05 68.7578V69.5586C1353.55 69.5 1355.07 69.373 1356.48 69.1875L1356.66 70.5547C1352.89 71.1992 1348.75 71.2188 1345.66 71.2188L1345.43 69.6953ZM1356.02 62.2734V63.7578H1345.88V62.2734H1349.88V60.9453H1352.05V62.2734H1356.02ZM1350.94 65.5547C1349.57 65.5742 1348.75 65.8672 1348.77 66.4531C1348.75 67.0781 1349.57 67.4297 1350.94 67.4297C1352.3 67.4297 1353.12 67.0781 1353.12 66.4531C1353.12 65.8672 1352.3 65.5742 1350.94 65.5547ZM1378.98 69.5391V71.2773H1362.87V69.5391H1369.86V67.8594H1364.84V61.8828H1377.03V63.582H1367.01V66.1406H1377.13V67.8594H1371.99V69.5391H1378.98ZM1370.9 72.293C1374.71 72.293 1376.99 73.4453 1377.01 75.5156C1376.99 77.5664 1374.71 78.7383 1370.9 78.7383C1367.05 78.7383 1364.75 77.5664 1364.75 75.5156C1364.75 73.4453 1367.05 72.293 1370.9 72.293ZM1370.9 73.9531C1368.32 73.9531 1366.93 74.5 1366.95 75.5156C1366.93 76.5312 1368.32 77.0586 1370.9 77.0586C1373.42 77.0586 1374.82 76.5312 1374.84 75.5156C1374.82 74.5 1373.42 73.9531 1370.9 73.9531Z" fill="#424242"/>
<rect width="107" height="72" transform="translate(1416 34)" fill="white"/>
<path d="M1468.7 71.3555V73.0742H1461.67V78.7383H1459.52V73.0742H1452.57V71.3555H1468.7ZM1456.67 61.7852V63.9531H1464.56V61.7852H1466.75V69.5195H1454.52V61.7852H1456.67ZM1456.67 67.7617H1464.56V65.6719H1456.67V67.7617ZM1484.68 61.1016V74.4609H1482.49V72.918H1479.03V71.3945H1482.49V61.1016H1484.68ZM1485.09 76.6289V78.3867H1472.14V73.1719H1474.3V76.6289H1485.09ZM1469.79 69.0312C1473.05 69.0117 1477.43 68.9727 1481.18 68.5039L1481.3 70.0664C1479.84 70.3105 1478.34 70.4766 1476.84 70.5742V73.9727H1474.68V70.6914C1473.03 70.7598 1471.45 70.7695 1470.07 70.7695L1469.79 69.0312ZM1475.55 61.7461C1478.13 61.7461 1479.93 63.0156 1479.95 64.8711C1479.93 66.7656 1478.13 67.9766 1475.55 67.9766C1472.94 67.9766 1471.14 66.7656 1471.14 64.8711C1471.14 63.0156 1472.94 61.7461 1475.55 61.7461ZM1475.55 63.3477C1474.15 63.3477 1473.19 63.9141 1473.19 64.8711C1473.19 65.8281 1474.15 66.3945 1475.55 66.3945C1476.9 66.3945 1477.86 65.8281 1477.88 64.8711C1477.86 63.9141 1476.9 63.3477 1475.55 63.3477Z" fill="#424242"/>
<rect width="114" height="72" transform="translate(1523 34)" fill="white"/>
<path d="M1565.56 72.2539H1567.89L1569.1 73.8359C1569.89 72.9961 1570.37 71.6777 1570.37 69.9297C1570.37 66.707 1568.75 64.9492 1566.44 64.9492C1564.14 64.9492 1562.52 66.707 1562.52 69.9297C1562.52 73.1523 1564.14 74.9102 1566.44 74.9102C1566.81 74.9102 1567.16 74.8613 1567.5 74.7734L1565.56 72.2539ZM1572.93 69.9297C1572.93 72.498 1572.05 74.4707 1570.64 75.7109L1572.59 78.2305H1570.11L1568.94 76.7266C1568.18 77.0391 1567.34 77.1953 1566.44 77.1953C1562.73 77.1953 1559.96 74.4805 1559.96 69.9297C1559.96 65.3594 1562.73 62.6641 1566.44 62.6641C1570.15 62.6641 1572.93 65.3594 1572.93 69.9297ZM1579.33 77.1953C1576.44 77.1953 1574.66 75.4961 1574.66 73.25C1574.66 71.5898 1575.75 70.5547 1577.32 69.4609C1576.5 68.4648 1575.88 67.4395 1575.88 66.1797C1575.88 64.168 1577.34 62.6836 1579.57 62.6836C1581.79 62.6836 1583.16 64.168 1583.16 65.8867C1583.16 67.2344 1582.46 68.25 1581.29 69.1094L1580.39 69.7734L1582.98 72.8008C1583.35 72.1074 1583.57 71.2773 1583.57 70.3398H1585.72C1585.72 72.2832 1585.18 73.6602 1584.49 74.5781L1586.56 77H1583.86L1582.96 75.9648C1581.95 76.8047 1580.58 77.1953 1579.33 77.1953ZM1577.11 73.1328C1577.11 74.2656 1578 75.1641 1579.41 75.1641C1580.16 75.1641 1580.93 74.9004 1581.62 74.4023L1578.67 71.0234L1578.43 71.1992C1577.48 71.9023 1577.11 72.6445 1577.11 73.1328ZM1578.08 66.2188C1578.08 66.8633 1578.52 67.5176 1579.12 68.25L1579.92 67.7031C1580.66 67.2148 1581.05 66.7266 1581.05 66.0039C1581.05 65.3789 1580.5 64.7148 1579.61 64.7344C1578.71 64.7344 1578.08 65.4375 1578.08 66.2188ZM1589.7 77H1586.99L1591.97 62.8594H1595.09L1600.09 77H1597.38L1596.21 73.5039H1590.88L1589.7 77ZM1591.56 71.4531H1595.52L1593.59 65.75H1593.47L1591.56 71.4531Z" fill="#424242"/>
</g>
<defs>
<filter id="filter0_d_332_489" x="-10" y="-6" width="1940" height="140" filterUnits="userSpaceOnUse" color-interpolation-filters="sRGB">
<feFlood flood-opacity="0" result="BackgroundImageFix"/>
<feColorMatrix in="SourceAlpha" type="matrix" values="0 0 0 0 0 0 0 0 0 0 0 0 0 0 0 0 0 0 127 0" result="hardAlpha"/>
<feOffset dy="4"/>
<feGaussianBlur stdDeviation="5"/>
<feComposite in2="hardAlpha" operator="out"/>
<feColorMatrix type="matrix" values="0 0 0 0 0 0 0 0 0 0 0 0 0 0 0 0 0 0 0.03 0"/>
<feBlend mode="normal" in2="BackgroundImageFix" result="effect1_dropShadow_332_489"/>
<feBlend mode="normal" in="SourceGraphic" in2="effect1_dropShadow_332_489" result="shape"/>
</filter>
<linearGradient id="paint0_linear_332_489" x1="313" y1="45.6528" x2="313" y2="94.3471" gradientUnits="userSpaceOnUse">
<stop stop-color="#306BFF"/>
<stop offset="1" stop-color="#27B3FF"/>
</linearGradient>
</defs>
</svg>
